<svg width="20" height="20" viewBox="0 0 20 20" fill="none" xmlns="http://www.w3.org/2000/svg">
<path d="M19.1379 7.41964C19.0802 7.24983 18.9741 7.10061 18.8326 6.99043C18.6911 6.88024 18.5205 6.81389 18.3417 6.79959L13.1126 6.38408L10.8498 1.37506C10.7777 1.21373 10.6605 1.07671 10.5123 0.980522C10.364 0.884337 10.1912 0.833105 10.0145 0.833008C9.83777 0.832911 9.66482 0.883954 9.51649 0.979976C9.36817 1.076 9.2508 1.2129 9.17856 1.37415L6.91575 6.38408L1.68659 6.79959C1.5109 6.8135 1.34294 6.87774 1.2028 6.98462C1.06267 7.0915 0.956285 7.23648 0.89639 7.40224C0.836495 7.56799 0.825621 7.74749 0.865068 7.91926C0.904516 8.09103 0.992615 8.2478 1.11883 8.37081L4.98313 12.1379L3.61645 18.0559C3.57496 18.235 3.58826 18.4225 3.65463 18.594C3.721 18.7655 3.83738 18.913 3.98867 19.0175C4.13996 19.1221 4.31916 19.1787 4.50304 19.1801C4.68691 19.1815 4.86696 19.1276 5.01982 19.0254L10.0142 15.6958L15.0085 19.0254C15.1647 19.1291 15.349 19.1825 15.5365 19.1784C15.724 19.1743 15.9057 19.1129 16.0573 19.0024C16.2088 18.8919 16.3229 18.7377 16.3841 18.5604C16.4454 18.3832 16.4509 18.1914 16.3999 18.0109L14.7223 12.1406L18.8829 8.39649C19.1553 8.15067 19.2553 7.76727 19.1379 7.41964Z" fill="#F3CD03"/>
</svg>
